<svg width="18" height="19" viewBox="0 0 18 19" fill="none" xmlns="http://www.w3.org/2000/svg">
<path d="M9 1.71293C11.3855 1.71293 11.7108 1.71293 12.6867 1.71293C13.5542 1.71293 13.988 1.9298 14.3133 2.03823C14.747 2.2551 15.0723 2.36354 15.3976 2.68884C15.7229 3.01414 15.9398 3.33944 16.0482 3.77317C16.1566 4.09847 16.2651 4.53221 16.3735 5.39968C16.3735 6.37558 16.3735 6.59245 16.3735 9.08643C16.3735 11.5804 16.3735 11.7973 16.3735 12.7732C16.3735 13.6406 16.1566 14.0744 16.0482 14.3997C15.8313 14.8334 15.7229 15.1587 15.3976 15.484C15.0723 15.8093 14.747 16.0262 14.3133 16.1346C13.988 16.2431 13.5542 16.3515 12.6867 16.4599C11.7108 16.4599 11.494 16.4599 9 16.4599C6.50602 16.4599 6.28916 16.4599 5.31325 16.4599C4.44578 16.4599 4.01205 16.2431 3.68675 16.1346C3.25301 15.9178 2.92771 15.8093 2.60241 15.484C2.27711 15.1587 2.06024 14.8334 1.95181 14.3997C1.84337 14.0744 1.73494 13.6406 1.62651 12.7732C1.62651 11.7973 1.62651 11.5804 1.62651 9.08643C1.62651 6.59245 1.62651 6.37558 1.62651 5.39968C1.62651 4.53221 1.84337 4.09847 1.95181 3.77317C2.16868 3.33944 2.27711 3.01414 2.60241 2.68884C2.92771 2.36354 3.25301 2.14667 3.68675 2.03823C4.01205 1.9298 4.44578 1.82137 5.31325 1.71293C6.28916 1.71293 6.61446 1.71293 9 1.71293ZM9 0.0864258C6.50602 0.0864258 6.28916 0.0864258 5.31325 0.0864258C4.33735 0.0864258 3.68675 0.303294 3.14458 0.520161C2.60241 0.737029 2.06024 1.06233 1.51807 1.6045C0.975904 2.14667 0.759037 2.5804 0.433736 3.23101C0.216868 3.77317 0.108434 4.42378 0 5.39968C0 6.37558 0 6.70088 0 9.08643C0 11.5804 0 11.7973 0 12.7732C0 13.7491 0.216868 14.3997 0.433736 14.9418C0.650603 15.484 0.975904 16.0262 1.51807 16.5684C2.06024 17.1105 2.49398 17.3274 3.14458 17.6527C3.68675 17.8696 4.33735 17.978 5.31325 18.0864C6.28916 18.0864 6.61446 18.0864 9 18.0864C11.3855 18.0864 11.7108 18.0864 12.6867 18.0864C13.6627 18.0864 14.3133 17.8696 14.8554 17.6527C15.3976 17.4358 15.9398 17.1105 16.4819 16.5684C17.0241 16.0262 17.241 15.5925 17.5663 14.9418C17.7831 14.3997 17.8916 13.7491 18 12.7732C18 11.7973 18 11.472 18 9.08643C18 6.70088 18 6.37558 18 5.39968C18 4.42378 17.7831 3.77317 17.5663 3.23101C17.3494 2.68884 17.0241 2.14667 16.4819 1.6045C15.9398 1.06233 15.506 0.845463 14.8554 0.520161C14.3133 0.303294 13.6627 0.19486 12.6867 0.0864258C11.7108 0.0864258 11.494 0.0864258 9 0.0864258Z" fill="#F0F0F0"/>
<path d="M9 4.42378C6.39759 4.42378 4.33735 6.48402 4.33735 9.08643C4.33735 11.6888 6.39759 13.7491 9 13.7491C11.6024 13.7491 13.6627 11.6888 13.6627 9.08643C13.6627 6.48402 11.6024 4.42378 9 4.42378ZM9 12.1226C7.3735 12.1226 5.96386 10.8214 5.96386 9.08643C5.96386 7.45992 7.26506 6.05028 9 6.05028C10.6265 6.05028 12.0361 7.35149 12.0361 9.08643C12.0361 10.7129 10.6265 12.1226 9 12.1226Z" fill="#F0F0F0"/>
<path d="M13.7711 5.39968C14.3699 5.39968 14.8554 4.91421 14.8554 4.31534C14.8554 3.71648 14.3699 3.23101 13.7711 3.23101C13.1722 3.23101 12.6867 3.71648 12.6867 4.31534C12.6867 4.91421 13.1722 5.39968 13.7711 5.39968Z" fill="#F0F0F0"/>
</svg>
