<svg width="130" height="131" viewBox="0 0 130 131" fill="none" xmlns="http://www.w3.org/2000/svg">
<path d="M70.1128 28.1626C70.1086 28.1609 70.0953 28.1542 70.0936 28.1534L70.0911 28.1592C68.4936 27.9568 66.8769 27.8169 65.2253 27.8169C63.5737 27.8169 61.9562 27.956 60.3587 28.1592L60.3562 28.1534C60.3537 28.1542 60.3412 28.1609 60.3362 28.1626C48.0908 29.7242 37.6488 37.0621 31.7793 47.3351H33.3343C35.4532 43.7869 38.1385 40.6144 41.2802 37.9575C42.0906 38.5805 43.9322 39.8623 46.7232 41.1775C45.6479 42.9616 44.6326 45.0288 43.7348 47.3351H45.214C46.0536 45.2812 46.9947 43.408 48.0109 41.753C51.9772 43.4438 57.5251 45.0121 64.5481 45.1096V47.3351H65.9016V45.1096C72.9471 45.0113 78.5093 43.433 82.4772 41.7355C83.4692 43.3647 84.4104 45.2454 85.2558 47.3351H86.6934C85.8022 45.068 84.7877 43.009 83.6841 41.1966C86.4976 39.8748 88.3525 38.583 89.1671 37.9567C92.3104 40.6136 94.9957 43.7869 97.1146 47.3351H98.6696C92.801 37.0621 82.3581 29.7242 70.1128 28.1626ZM47.4703 39.9981C44.9741 38.8395 43.2608 37.7159 42.3855 37.0813C46.6258 33.763 51.5924 31.3451 57.0154 30.1157C55.1305 31.4167 52.6668 33.4232 50.2073 36.3208C49.3094 37.3778 48.3815 38.6046 47.4703 39.9981ZM64.549 43.757C57.9133 43.6587 52.6002 42.1745 48.7697 40.5686C53.7363 33.1291 59.739 29.96 60.7451 29.4685C61.9961 29.317 63.2638 29.2287 64.549 29.2053V43.757ZM65.9025 43.757V29.2053C67.1876 29.2287 68.4561 29.317 69.7063 29.4685C70.5542 29.88 74.9569 32.1646 79.2572 37.2512C80.0668 38.209 80.903 39.3068 81.7267 40.5495C77.8921 42.162 72.564 43.6579 65.9025 43.757ZM82.942 40.0164C79.6811 35.0698 75.9497 31.8981 73.3503 30.0932C78.8066 31.3167 83.8023 33.7447 88.0651 37.0804C87.1848 37.7193 85.4598 38.8512 82.942 40.0164Z" fill="#0B2A67"/>
<path d="M65.2261 110.303C44.6409 110.303 27.3824 96.1493 22.594 77.0483H21.1123C25.9306 96.9464 43.8472 111.729 65.227 111.729C86.6059 111.729 104.522 96.9464 109.342 77.0483H107.86C103.07 96.1493 85.8113 110.303 65.2261 110.303Z" fill="#0B2A67"/>
<path d="M129.809 66.3068C129.809 65.3615 129.78 64.4236 129.737 63.4891C129.721 63.0993 129.697 62.712 129.673 62.3247C129.642 61.8225 129.602 61.3219 129.559 60.823C126.763 27.7343 99.0374 1.74609 65.2258 1.74609C32.661 1.74609 5.7391 25.8528 1.29807 57.1915C1.29557 57.2074 1.29474 57.2232 1.29224 57.239C1.12649 58.4167 0.995724 59.6053 0.89411 60.8022C0.849966 61.3127 0.809987 61.825 0.777504 62.3389C0.754183 62.7187 0.731697 63.0985 0.715039 63.4808C0.672561 64.4261 0.642578 65.374 0.642578 66.3302C0.642578 67.2863 0.671728 68.2358 0.715039 69.1812C0.731697 69.5618 0.754183 69.9399 0.777504 70.3181C0.809987 70.8345 0.849966 71.3492 0.894942 71.8631C0.995723 73.0508 1.12482 74.2294 1.28974 75.3979C1.29307 75.4213 1.29557 75.4454 1.2989 75.4687C5.73993 106.808 32.6618 130.913 65.2266 130.913C99.0374 130.913 126.761 104.928 129.56 71.8414C129.603 71.34 129.642 70.837 129.675 70.3322C129.698 69.9458 129.722 69.5593 129.739 69.1703C129.782 68.2358 129.81 67.2971 129.811 66.3518C129.811 66.3443 129.811 66.3368 129.811 66.3293C129.811 66.3218 129.809 66.3143 129.809 66.3068ZM65.2258 15.5556C90.1454 15.5556 110.857 33.513 115.163 57.1907H113.244C108.963 34.5624 89.0993 17.4455 65.2258 17.4455C41.3523 17.4455 21.4884 34.5624 17.2073 57.1907H15.2883C19.5944 33.5138 40.3062 15.5556 65.2258 15.5556ZM108.916 70.1715L106.499 68.9288L104.061 70.1715L104.475 67.4795L102.496 65.5239L105.233 65.1791L106.499 62.4871L107.718 65.1791L110.433 65.5239L108.501 67.4795L108.916 70.1715ZM97.699 57.1907L100.662 66.3376L97.699 75.4679H111.867C107.606 97.3432 88.348 113.857 65.2258 113.857C42.1036 113.857 22.8461 97.3432 18.5841 75.4679H32.7518L29.7891 66.3376L32.7518 57.1907H18.5841C22.8461 35.3154 42.1028 18.8014 65.2258 18.8014C88.3488 18.8014 107.606 35.3154 111.867 57.1907H97.699ZM26.3909 70.1715L23.9522 68.9288L21.5359 70.1715L21.9499 67.4795L20.0167 65.5239L22.732 65.1791L23.9513 62.4871L25.2165 65.1791L27.9543 65.5239L25.9753 67.4795L26.3909 70.1715ZM10.8431 69.9L7.52484 71.6066L8.09372 67.9093L5.43926 65.2232L9.16816 64.7493L10.8431 61.052L12.5814 64.7493L16.3419 65.2232L13.6242 67.9093L14.1931 71.6066L10.8431 69.9ZM65.2258 117.103C40.3062 117.103 19.5944 99.1456 15.2883 75.4679H17.2073C21.4884 98.0962 41.3523 115.213 65.2258 115.213C89.0993 115.213 108.963 98.0962 113.244 75.4679H115.163C110.857 99.1456 90.1454 117.103 65.2258 117.103ZM122.927 71.6066L119.608 69.9L116.259 71.6066L116.827 67.9093L114.11 65.2232L117.87 64.7493L119.608 61.052L121.283 64.7493L125.012 65.2232L122.358 67.9093L122.927 71.6066Z" fill="#0B2A67"/>
<path d="M65.2261 20.9307C43.8472 20.9307 25.9306 35.7122 21.1123 55.6102H22.594C27.3832 36.5101 44.6418 22.3566 65.2261 22.3566C85.8105 22.3566 103.069 36.5101 107.858 55.6102H109.34C104.522 35.713 86.605 20.9307 65.2261 20.9307Z" fill="#0B2A67"/>
<path d="M89.17 94.6996C88.263 94.0033 86.0708 92.4782 82.6867 91.0082C83.777 89.334 84.8156 87.425 85.7618 85.3228H84.2659C83.383 87.1968 82.416 88.9192 81.3874 90.4659C77.5152 88.9484 72.3154 87.6366 65.9029 87.5466V85.3228H64.5494V87.5466C58.1319 87.6357 52.9288 88.95 49.0558 90.4684C48.028 88.9217 47.061 87.1976 46.179 85.3228H44.7022C45.6417 87.395 46.6804 89.2974 47.7948 90.9948C44.3957 92.469 42.1919 93.9999 41.2815 94.6996C38.139 92.0434 35.4545 88.8701 33.3356 85.3228H31.7881C38.0873 96.3404 49.6505 103.976 63.0502 104.731C63.0552 104.734 63.0702 104.74 63.0719 104.741L63.0752 104.733C63.7907 104.773 64.4995 104.842 65.2249 104.842C65.9504 104.842 66.6584 104.773 67.3746 104.733L67.378 104.741C67.3813 104.739 67.3955 104.734 67.4005 104.731C80.7994 103.976 92.3617 96.3404 98.6609 85.3228H97.1142C94.997 88.8709 92.3117 92.0434 89.17 94.6996ZM42.3843 95.5766C43.3854 94.8503 45.486 93.4835 48.5952 92.1625C52.5748 97.7905 57.1333 101.255 60.0568 103.085C53.4519 102.16 47.4058 99.5071 42.3843 95.5766ZM64.5494 103.453C64.1563 103.446 63.7699 103.413 63.3792 103.394C62.1265 102.808 55.4517 99.4238 49.8687 91.6462C53.5935 90.2169 58.5301 88.9884 64.5494 88.9001V103.453ZM67.0723 103.394C66.6825 103.413 66.296 103.447 65.9029 103.453V88.9001C71.9181 88.9892 76.8506 90.2161 80.5745 91.6437C74.9924 99.4171 68.3217 102.808 67.0723 103.394ZM70.4664 103.074C72.562 101.774 75.4721 99.6553 78.4298 96.477C79.5592 95.2634 80.7394 93.8275 81.8955 92.1792C84.983 93.496 87.0703 94.8537 88.0664 95.5766C83.064 99.4929 77.043 102.14 70.4664 103.074Z" fill="#0B2A67"/>
<path d="M45.6816 69.1483V81.6118H44.1724V70.7306H44.0993L41.0565 72.7511V71.2175L44.1724 69.1483H45.6816ZM48.974 79.0558V77.8143L54.4511 69.1483H55.3518V71.0714H54.7432L50.6049 77.6196V77.717H57.9808V79.0558H48.974ZM54.8406 81.6118V78.6785V78.1004V69.1483H56.2768V81.6118H54.8406ZM64.3266 81.7822C63.4097 81.7822 62.6287 81.5327 61.9837 81.0337C61.3386 80.5306 60.8456 79.8023 60.5048 78.8489C60.164 77.8914 59.9936 76.7352 59.9936 75.3801C59.9936 74.0331 60.164 72.8829 60.5048 71.9295C60.8497 70.972 61.3447 70.2417 61.9897 69.7386C62.6389 69.2315 63.4178 68.9779 64.3266 68.9779C65.2354 68.9779 66.0124 69.2315 66.6575 69.7386C67.3066 70.2417 67.8016 70.972 68.1424 71.9295C68.4872 72.8829 68.6597 74.0331 68.6597 75.3801C68.6597 76.7352 68.4893 77.8914 68.1485 78.8489C67.8077 79.8023 67.3147 80.5306 66.6696 81.0337C66.0245 81.5327 65.2436 81.7822 64.3266 81.7822ZM64.3266 80.4434C65.2354 80.4434 65.9414 80.0052 66.4445 79.1289C66.9475 78.2525 67.1991 77.0029 67.1991 75.3801C67.1991 74.3009 67.0835 73.3819 66.8522 72.6233C66.625 71.8646 66.2964 71.2864 65.8663 70.8888C65.4403 70.4912 64.9271 70.2924 64.3266 70.2924C63.426 70.2924 62.722 70.7367 62.2149 71.6252C61.7078 72.5097 61.4542 73.7613 61.4542 75.3801C61.4542 76.4593 61.5678 77.3762 61.795 78.1308C62.0222 78.8854 62.3488 79.4595 62.7748 79.8531C63.2048 80.2466 63.7221 80.4434 64.3266 80.4434ZM75.0374 81.7822C74.1205 81.7822 73.3395 81.5327 72.6945 81.0337C72.0494 80.5306 71.5564 79.8023 71.2156 78.8489C70.8748 77.8914 70.7044 76.7352 70.7044 75.3801C70.7044 74.0331 70.8748 72.8829 71.2156 71.9295C71.5605 70.972 72.0555 70.2417 72.7005 69.7386C73.3497 69.2315 74.1287 68.9779 75.0374 68.9779C75.9462 68.9779 76.7232 69.2315 77.3683 69.7386C78.0174 70.2417 78.5124 70.972 78.8532 71.9295C79.198 72.8829 79.3705 74.0331 79.3705 75.3801C79.3705 76.7352 79.2001 77.8914 78.8593 78.8489C78.5185 79.8023 78.0255 80.5306 77.3804 81.0337C76.7354 81.5327 75.9544 81.7822 75.0374 81.7822ZM75.0374 80.4434C75.9462 80.4434 76.6522 80.0052 77.1553 79.1289C77.6583 78.2525 77.9099 77.0029 77.9099 75.3801C77.9099 74.3009 77.7943 73.3819 77.563 72.6233C77.3358 71.8646 77.0072 71.2864 76.5771 70.8888C76.1511 70.4912 75.6379 70.2924 75.0374 70.2924C74.1368 70.2924 73.4329 70.7367 72.9257 71.6252C72.4186 72.5097 72.165 73.7613 72.165 75.3801C72.165 76.4593 72.2786 77.3762 72.5058 78.1308C72.733 78.8854 73.0596 79.4595 73.4856 79.8531C73.9157 80.2466 74.4329 80.4434 75.0374 80.4434ZM86.0647 69.1483V81.6118H84.5555V70.7306H84.4824L81.4396 72.7511V71.2175L84.5555 69.1483H86.0647Z" fill="#0B2A67"/>
<path d="M49.0246 48.8319V64.6309H47.1114V48.8319H49.0246ZM61.5006 52.7816C61.408 51.9999 61.0326 51.3931 60.3743 50.961C59.716 50.529 58.9086 50.313 57.952 50.313C57.2525 50.313 56.6405 50.4262 56.116 50.6525C55.5965 50.8788 55.1902 51.1899 54.8971 51.5859C54.6091 51.9819 54.4651 52.4319 54.4651 52.9359C54.4651 53.3576 54.5654 53.7202 54.766 54.0236C54.9717 54.3219 55.234 54.5714 55.5528 54.7719C55.8717 54.9674 56.206 55.1294 56.5557 55.2579C56.9054 55.3814 57.2268 55.4817 57.52 55.5588L59.1246 55.9908C59.536 56.0988 59.9937 56.2479 60.4977 56.4382C61.0069 56.6285 61.4929 56.8882 61.9557 57.2174C62.4237 57.5414 62.8094 57.958 63.1129 58.4671C63.4163 58.9762 63.568 59.6011 63.568 60.3417C63.568 61.1954 63.3443 61.9668 62.8969 62.656C62.4546 63.3451 61.8066 63.8929 60.9529 64.2991C60.1043 64.7054 59.0731 64.9086 57.8594 64.9086C56.728 64.9086 55.7482 64.726 54.9202 64.3609C54.0974 63.9957 53.4494 63.4866 52.9762 62.8334C52.5082 62.1803 52.2434 61.4217 52.1816 60.5577H54.1565C54.2079 61.1543 54.4085 61.648 54.7582 62.0388C55.1131 62.4246 55.5605 62.7126 56.1005 62.9028C56.6457 63.088 57.232 63.1806 57.8594 63.1806C58.5897 63.1806 59.2454 63.0623 59.8266 62.8257C60.4077 62.584 60.868 62.2497 61.2074 61.8228C61.5469 61.3908 61.7166 60.8868 61.7166 60.3108C61.7166 59.7863 61.57 59.3594 61.2769 59.0302C60.9837 58.7011 60.598 58.4337 60.1197 58.228C59.6414 58.0222 59.1246 57.8422 58.5691 57.688L56.6251 57.1325C55.3908 56.7777 54.4137 56.2711 53.6937 55.6128C52.9737 54.9545 52.6137 54.0931 52.6137 53.0285C52.6137 52.1439 52.8528 51.3725 53.3311 50.7142C53.8145 50.0508 54.4625 49.5365 55.2751 49.1713C56.0928 48.801 57.0057 48.6159 58.0137 48.6159C59.032 48.6159 59.9371 48.7985 60.7291 49.1636C61.5211 49.5236 62.1486 50.0173 62.6114 50.6448C63.0794 51.2722 63.3263 51.9845 63.352 52.7816H61.5006ZM80.0439 56.7314C80.0439 58.3977 79.7431 59.8377 79.1413 61.0514C78.5396 62.2651 77.7142 63.2011 76.665 63.8594C75.6159 64.5177 74.4176 64.8469 73.0702 64.8469C71.7227 64.8469 70.5244 64.5177 69.4753 63.8594C68.4261 63.2011 67.6007 62.2651 66.999 61.0514C66.3972 59.8377 66.0964 58.3977 66.0964 56.7314C66.0964 55.0651 66.3972 53.6251 66.999 52.4113C67.6007 51.1976 68.4261 50.2616 69.4753 49.6033C70.5244 48.945 71.7227 48.6159 73.0702 48.6159C74.4176 48.6159 75.6159 48.945 76.665 49.6033C77.7142 50.2616 78.5396 51.1976 79.1413 52.4113C79.7431 53.6251 80.0439 55.0651 80.0439 56.7314ZM78.1925 56.7314C78.1925 55.3634 77.9636 54.2088 77.5059 53.2676C77.0533 52.3265 76.4387 51.6142 75.6622 51.1308C74.8907 50.6473 74.0267 50.4056 73.0702 50.4056C72.1136 50.4056 71.247 50.6473 70.4704 51.1308C69.699 51.6142 69.0844 52.3265 68.6267 53.2676C68.1741 54.2088 67.9478 55.3634 67.9478 56.7314C67.9478 58.0994 68.1741 59.254 68.6267 60.1951C69.0844 61.1363 69.699 61.8486 70.4704 62.332C71.247 62.8154 72.1136 63.0571 73.0702 63.0571C74.0267 63.0571 74.8907 62.8154 75.6622 62.332C76.4387 61.8486 77.0533 61.1363 77.5059 60.1951C77.9636 59.254 78.1925 58.0994 78.1925 56.7314Z" fill="#0B2A67"/>
<path d="M29.2669 17.3441L28.7022 18.2019C28.4221 18.0902 28.1469 18.0362 27.8766 18.0401C27.6079 18.0417 27.3509 18.0906 27.1057 18.187C26.8597 18.2795 26.6331 18.4129 26.4258 18.5872C26.2186 18.7614 26.0375 18.9661 25.8827 19.2013C25.6004 19.6302 25.453 20.09 25.4405 20.5809C25.4296 21.0695 25.5675 21.5552 25.8544 22.0382C26.1427 22.5189 26.5936 22.9611 27.2069 23.3649C27.8203 23.7687 28.4047 24.008 28.9602 24.0829C29.5173 24.1555 30.018 24.0902 30.4625 23.887C30.9084 23.6815 31.2726 23.3643 31.5549 22.9354C31.7097 22.7003 31.8262 22.453 31.9043 22.1938C31.9825 21.9345 32.0166 21.6744 32.0066 21.4134C31.9959 21.1485 31.9381 20.8924 31.8333 20.6449C31.7277 20.3936 31.5694 20.1621 31.3584 19.9505L31.9231 19.0928C32.2426 19.3957 32.4892 19.7265 32.6627 20.0854C32.8363 20.4442 32.9399 20.8165 32.9736 21.2022C33.0049 21.5864 32.9684 21.9706 32.8643 22.3548C32.7616 22.7366 32.5926 23.1063 32.3573 23.4637C31.9596 24.0678 31.4584 24.5079 30.8536 24.784C30.2488 25.0601 29.5855 25.1539 28.8637 25.0654C28.142 24.9769 27.4075 24.6868 26.6605 24.195C25.9134 23.7032 25.3566 23.1433 24.99 22.5153C24.6235 21.8873 24.4474 21.2409 24.462 20.5762C24.4765 19.9116 24.6826 19.2772 25.0803 18.6731C25.3156 18.3157 25.5883 18.0143 25.8985 17.7691C26.2102 17.5215 26.5499 17.3369 26.9175 17.2153C27.2827 17.0922 27.6645 17.0395 28.0627 17.0571C28.4587 17.0732 28.86 17.1688 29.2669 17.3441Z" fill="#F5F5F5"/>
<path d="M39.0881 19.3176L35.4421 11.6609L40.063 9.46046L40.4546 10.2829L36.7609 12.0419L37.9929 14.629L41.4473 12.984L41.839 13.8065L38.3845 15.4515L39.6236 18.0536L43.3772 16.2661L43.7689 17.0886L39.0881 19.3176Z" fill="#F5F5F5"/>
<path d="M50.2357 14.803L46.8804 7.01458L49.5121 5.88085C50.1205 5.61871 50.6648 5.50749 51.1448 5.54719C51.6237 5.58434 52.0345 5.74252 52.3772 6.0217C52.7199 6.30089 52.9901 6.66993 53.1878 7.12882C53.3855 7.58771 53.467 8.03504 53.4323 8.47081C53.3976 8.90657 53.23 9.30943 52.9295 9.67936C52.6278 10.0468 52.1753 10.3604 51.5719 10.6204L49.4423 11.5379L49.0753 10.686L51.1745 9.78163C51.5903 9.6025 51.8988 9.39748 52.0999 9.16657C52.3035 8.93456 52.4143 8.68242 52.4323 8.41017C52.4517 8.13428 52.3942 7.84042 52.2599 7.52858C52.1255 7.21673 51.9498 6.96931 51.7327 6.7863C51.5156 6.6033 51.2517 6.50357 50.941 6.48712C50.6293 6.46813 50.2629 6.5493 49.8421 6.7306L48.184 7.44492L51.1789 14.3967L50.2357 14.803ZM52.3945 9.72495L55.8185 12.398L54.7232 12.8698L51.3297 10.1837L52.3945 9.72495Z" fill="#F5F5F5"/>
<path d="M56.7842 5.53293L56.6207 4.63675L62.8776 3.4947L63.0412 4.39088L60.4178 4.86971L61.777 12.3162L60.7668 12.5006L59.4076 5.0541L56.7842 5.53293Z" fill="#F5F5F5"/>
<path d="M68.1535 3.5357L68.2395 12.0157L67.2126 12.0261L67.1266 3.54611L68.1535 3.5357Z" fill="#F5F5F5"/>
<path d="M73.3414 12.5681L75.8119 4.45552L80.6763 5.93685L80.4109 6.80833L76.5289 5.62615L75.6941 8.36734L79.2117 9.43853L78.9463 10.31L75.4287 9.23881L74.3238 12.8673L73.3414 12.5681Z" fill="#F5F5F5"/>
<path d="M85.4111 7.36974L82.0685 15.1636L81.1247 14.7589L84.4673 6.96497L85.4111 7.36974Z" fill="#F5F5F5"/>
<path d="M87.9414 17.8546L91.7708 10.2879L96.3373 12.599L95.926 13.4118L92.2757 11.5645L90.9818 14.1212L94.3956 15.8489L93.9843 16.6617L90.5704 14.934L89.269 17.5055L92.9785 19.3828L92.5671 20.1956L87.9414 17.8546Z" fill="#F5F5F5"/>
<path d="M99.496 23.9229L97.2291 22.6152L101.467 15.2693L103.834 16.6349C104.546 17.046 105.071 17.5448 105.409 18.1313C105.747 18.7155 105.894 19.3593 105.848 20.0627C105.804 20.7638 105.562 21.4946 105.124 22.255C104.682 23.0202 104.166 23.6003 103.575 23.9955C102.985 24.3882 102.344 24.5825 101.652 24.5783C100.961 24.5717 100.242 24.3532 99.496 23.9229ZM98.5738 22.3392L99.8938 23.1007C100.501 23.451 101.072 23.6242 101.607 23.6202C102.141 23.6162 102.631 23.4544 103.077 23.1347C103.523 22.815 103.918 22.3562 104.263 21.7584C104.605 21.1654 104.803 20.599 104.856 20.0592C104.91 19.5171 104.811 19.0202 104.559 18.5685C104.308 18.1145 103.895 17.722 103.321 17.3909L101.901 16.5716L98.5738 22.3392Z" fill="#F5F5F5"/>
</svg>
