<svg width="18" height="19" viewBox="0 0 18 19" fill="none" xmlns="http://www.w3.org/2000/svg">
<path fill-rule="evenodd" clip-rule="evenodd" d="M6.6861 6.35853H10.0287V8.02353C10.5102 7.06593 11.745 6.20553 13.5999 6.20553C17.1558 6.20553 18 8.11173 18 11.6091V18.0864H14.4V12.4056C14.4 10.4139 13.9185 9.29073 12.6927 9.29073C10.9926 9.29073 10.2861 10.5012 10.2861 12.4047V18.0864H6.6861V6.35853ZM0.513 17.9334H4.113V6.20553H0.513V17.9334ZM4.6287 2.38143C4.62883 2.68317 4.56899 2.98194 4.45265 3.26036C4.33631 3.53877 4.16579 3.79129 3.951 4.00323C3.73558 4.21753 3.48004 4.38729 3.19898 4.5028C2.91793 4.61831 2.61686 4.67731 2.313 4.67643C1.70064 4.67505 1.11322 4.43368 0.6768 4.00413C0.46287 3.79141 0.292979 3.5386 0.176847 3.26016C0.0607143 2.98172 0.000619396 2.68311 0 2.38143C0 1.77213 0.243 1.18893 0.6777 0.758727C1.11303 0.32752 1.70116 0.0858641 2.3139 0.0864268C2.9277 0.0864268 3.5163 0.328527 3.951 0.758727C4.3857 1.18893 4.6287 1.77213 4.6287 2.38143Z" fill="#F0F0F0"/>
</svg>
