<svg width="10" height="10" viewBox="0 0 10 10" fill="none" xmlns="http://www.w3.org/2000/svg">
<path d="M9.99455 4.99992C9.99569 5.14637 9.95117 5.28954 9.86718 5.40952C9.78319 5.5295 9.66391 5.62033 9.52592 5.6694L6.69446 6.69906L5.66525 9.53007C5.61452 9.66673 5.52318 9.7846 5.4035 9.86783C5.28382 9.95107 5.14154 9.99568 4.99576 9.99568C4.84999 9.99568 4.70771 9.95107 4.58803 9.86783C4.46835 9.7846 4.37701 9.66673 4.32628 9.53007L3.29707 6.69861L0.465612 5.6694C0.328947 5.61867 0.211081 5.52733 0.127847 5.40765C0.0446136 5.28797 0 5.14569 0 4.99992C0 4.85414 0.0446136 4.71186 0.127847 4.59218C0.211081 4.4725 0.328947 4.38116 0.465612 4.33043L3.29707 3.30122L4.32628 0.469762C4.37701 0.333098 4.46835 0.215231 4.58803 0.131998C4.70771 0.048764 4.84999 0.00415039 4.99576 0.00415039C5.14154 0.00415039 5.28382 0.048764 5.4035 0.131998C5.52318 0.215231 5.61452 0.333098 5.66525 0.469762L6.69491 3.30122L9.52592 4.33043C9.66391 4.3795 9.78319 4.47033 9.86718 4.59031C9.95117 4.7103 9.99569 4.85346 9.99455 4.99992Z" fill="#0CBA4C"/>
</svg>
