<svg width="201" height="619" viewBox="0 0 201 619" fill="none" xmlns="http://www.w3.org/2000/svg">
<path d="M201 549.919L180.964 515.572L160.928 481.226L140.893 515.572L120.857 549.919H160.928H201Z" fill="#B6CACE"/>
<path d="M120.857 137.756L100.821 172.103L80.7861 206.45H120.857H160.928L140.893 172.103L120.857 137.756Z" fill="#C2E6F2"/>
<path d="M120.857 137.757H160.928H201L180.964 103.41L160.928 69.0625L140.893 103.41L120.857 137.757Z" fill="#0B2A67"/>
<path d="M80.7859 206.45L60.7499 240.797L40.7139 275.144H80.7859H120.857L100.821 240.797L80.7859 206.45Z" fill="#B6CACE"/>
<path d="M160.928 69.0622L140.893 34.7152L120.857 0.368164L100.821 34.7152L80.7861 69.0622H120.857H160.928Z" fill="#6D827B"/>
<path d="M100.821 584.266L120.857 549.919H80.7859H40.7139L60.7499 584.266L80.7859 618.613L100.821 584.266Z" fill="#F0F0F0"/>
<path d="M40.7139 412.532L60.7499 446.878L80.7859 481.226L100.821 446.878L120.857 412.532H80.7859H40.7139Z" fill="#B6CACE"/>
<path d="M120.857 412.532L140.893 378.185L160.928 343.838H120.857H80.7861L100.821 378.185L120.857 412.532Z" fill="#B6CACE"/>
<path d="M40.7139 275.144L60.7499 309.491L80.7859 343.838L100.821 309.491L120.857 275.144H80.7859H40.7139Z" fill="#0B2A67"/>
<path d="M80.7861 206.45L100.821 240.797L120.857 275.144L140.893 240.797L160.928 206.45H120.857H80.7861Z" fill="#6D827B"/>
<path d="M120.857 137.756L140.893 172.103L160.928 206.45L180.964 172.103L201 137.756H160.928H120.857Z" fill="#B6CACE"/>
<path d="M120.857 137.756H80.7859H40.7139L60.7499 172.103L80.7859 206.45L100.821 172.103L120.857 137.756Z" fill="#0B2A67"/>
<path d="M120.857 137.757L140.893 103.41L160.928 69.0625H120.857H80.7861L100.821 103.41L120.857 137.757Z" fill="#00ADED"/>
<path d="M40.7136 137.757H80.7856H120.857L100.821 103.41L80.7856 69.0625H40.7136H0.642578L20.6776 103.41L40.7136 137.757Z" fill="#B6CACE"/>
<path d="M120.857 0.368164H80.7859H40.7139L60.7499 34.7152L80.7859 69.0622L100.821 34.7152L120.857 0.368164Z" fill="#0B2A67"/>
<path d="M201 137.757V69.0625H160.928L180.964 103.41L201 137.757Z" fill="#C2E6F2"/>
</svg>
