<svg width="20" height="17" viewBox="0 0 20 17" fill="none" xmlns="http://www.w3.org/2000/svg">
<path d="M19.5 1.94686C18.8452 2.39426 18.0764 2.63183 17.2907 2.62958C18.1308 2.11983 18.7597 1.30996 19.0581 0.353863C18.3618 0.960234 17.4843 1.3017 16.5727 1.32104C15.9716 0.686934 15.1871 0.270716 14.3369 0.134853C13.4867 -0.00101031 12.6167 0.150809 11.8574 0.567527C11.098 0.984245 10.4904 1.64338 10.1256 2.44603C9.76086 3.24867 9.65864 4.15152 9.8343 5.01908C8.28743 4.93496 6.77502 4.51666 5.39528 3.79135C4.01554 3.06604 2.79932 2.04994 1.82558 0.809006C1.34909 1.69713 1.20958 2.73581 1.43407 3.72383C1.65856 4.71184 2.23108 5.57887 3.0407 6.15694C2.42967 6.16583 1.82487 6.02956 1.27326 5.75869C1.28811 6.67514 1.60093 7.55998 2.16167 8.27166C2.72241 8.98334 3.49867 9.48074 4.36628 9.6843C3.78874 9.83966 3.18466 9.8591 2.59884 9.74119C2.85155 10.5531 3.34391 11.2635 4.00726 11.7734C4.67062 12.2833 5.4719 12.5673 6.29942 12.5858C4.55171 13.6779 2.5441 14.2491 0.5 14.2357C2.21195 15.387 4.20048 16.0262 6.24424 16.0824C8.28799 16.1385 10.3068 15.6093 12.0759 14.5537C13.8449 13.4981 15.2949 11.9575 16.2644 10.1033C17.2338 8.24922 17.6847 6.15434 17.5669 4.0519C18.2957 3.43795 18.9453 2.73054 19.5 1.94686Z" fill="#F0F0F0"/>
</svg>
