<svg width="83" height="83" viewBox="0 0 83 83" fill="none" xmlns="http://www.w3.org/2000/svg">
<path d="M41.5 81.6299C63.5914 81.6299 81.5 63.7213 81.5 41.6299C81.5 19.5385 63.5914 1.62988 41.5 1.62988C19.4086 1.62988 1.5 19.5385 1.5 41.6299C1.5 63.7213 19.4086 81.6299 41.5 81.6299Z" stroke="white" stroke-width="2" stroke-linecap="round" stroke-linejoin="round"/>
<path d="M62.8488 73.6299L58.3644 69.0726C57.8839 68.5829 57.2836 68.2321 56.6252 68.056L46.3579 65.3178C45.4461 65.0743 44.6546 64.4982 44.1349 63.6996C43.6152 62.901 43.4037 61.936 43.5407 60.989L44.681 53.1098C44.7779 52.4447 45.0428 51.8164 45.4501 51.2862C45.8573 50.756 46.3929 50.342 47.0047 50.0845L61.5936 43.927C62.2678 43.643 63.0078 43.5603 63.7267 43.6887C64.4456 43.8171 65.1134 44.1512 65.6516 44.6517L77.5 55.6486" stroke="#0B2A67" stroke-linecap="round" stroke-linejoin="round"/>
<path d="M8.5 61.6299L12.2151 58.9667C12.6265 58.6702 12.9645 58.2675 13.199 57.7944C13.4336 57.3213 13.5574 56.7923 13.5595 56.2545L13.6382 41.4557C13.6423 40.8144 13.818 40.1883 14.1438 39.6544L21.9859 26.8694C22.2108 26.5053 22.5006 26.1944 22.8381 25.9552C23.1756 25.716 23.5539 25.5534 23.9502 25.4772C24.3466 25.4009 24.753 25.4126 25.1452 25.5114C25.5374 25.6102 25.9072 25.7943 26.2328 26.0525L33.6517 31.3625C34.2764 31.8533 35.0494 32.0652 35.8126 31.9548L47.5945 30.2147C48.3219 30.1084 48.9882 29.7145 49.467 29.1078L57.7735 18.5571C58.2403 17.9663 58.498 17.213 58.5 16.4331V6.62988" stroke="#0B2A67" stroke-linecap="round" stroke-linejoin="round"/>
</svg>
