<svg width="96" height="97" viewBox="0 0 96 97" fill="none" xmlns="http://www.w3.org/2000/svg">
<path d="M76 38.9573C76 49.2773 70.92 57.2173 63.192 62.4453C61.392 63.6613 60.492 64.2693 60.048 64.9653C59.608 65.6533 59.452 66.5653 59.152 68.3813L58.912 69.7933C58.384 72.9853 58.116 74.5813 56.996 75.5293C55.876 76.4773 54.26 76.4773 51.024 76.4773H40.576C37.34 76.4773 35.724 76.4773 34.604 75.5293C33.484 74.5813 33.22 72.9853 32.684 69.7933L32.452 68.3813C32.148 66.5693 32 65.6613 31.56 64.9733C31.12 64.2853 30.216 63.6693 28.412 62.4373C20.768 57.2093 16 49.2733 16 38.9573C16 22.1293 29.432 8.47731 46 8.47731C48.0155 8.47518 50.0259 8.6789 52 9.08531" stroke="white" stroke-width="2" stroke-linecap="round" stroke-linejoin="round"/>
<path d="M54 76.4773V80.4773C54 84.2493 54 86.1333 52.828 87.3053C51.656 88.4773 49.772 88.4773 46 88.4773C42.228 88.4773 40.344 88.4773 39.172 87.3053C38 86.1333 38 84.2493 38 80.4773V76.4773M66 8.47729L67.032 11.2653C68.384 14.9213 69.06 16.7493 70.392 18.0813C71.728 19.4173 73.556 20.0933 77.212 21.4453L80 22.4773L77.212 23.5093C73.556 24.8613 71.728 25.5373 70.396 26.8693C69.06 28.2053 68.384 30.0333 67.032 33.6893L66 36.4773L64.968 33.6893C63.616 30.0333 62.94 28.2053 61.608 26.8733C60.272 25.5373 58.444 24.8613 54.788 23.5093L52 22.4773L54.788 21.4453C58.444 20.0933 60.272 19.4173 61.604 18.0853C62.94 16.7493 63.616 14.9213 64.968 11.2653L66 8.47729Z" stroke="#0B2A67" stroke-linecap="round" stroke-linejoin="round"/>
</svg>
